<?xml version="1.0" encoding="UTF-8" standalone="no"?>
<svg width="88px" height="89px" viewBox="0 0 88 89" version="1.1" xmlns="http://www.w3.org/2000/svg" xmlns:xlink="http://www.w3.org/1999/xlink">
    <!-- Generator: Sketch 3.6.1 (26313) - http://www.bohemiancoding.com/sketch -->
    <title>Group</title>
    <desc>Created with Sketch.</desc>
    <defs></defs>
    <g id="Web-Elements" stroke="none" stroke-width="1" fill="none" fill-rule="evenodd">
        <g id="Artboard-1" transform="translate(-185.000000, -177.000000)" fill="#FFFFFF">
            <g id="Group" transform="translate(185.000000, 177.000000)">
                <path d="M86.2255217,85.121625 L1.602,85.121625 C0.731347826,85.121625 0.0154782609,85.83075 0.0154782609,86.710375 C0.0154782609,87.58225 0.735217391,88.29525 1.602,88.29525 L86.2255217,88.29525 C87.103913,88.29525 87.8120435,87.578375 87.8120435,86.710375 C87.8120435,85.83075 87.103913,85.121625 86.2255217,85.121625 L86.2255217,85.121625 Z" id="Shape"></path>
                <path d="M11.7363913,77.7165 L33.3285652,77.7165 L54.4834783,77.7165 L75.6538696,77.7165 C76.5245217,77.7165 77.2326522,76.99575 77.2326522,76.131625 L77.2326522,23.144875 C77.2326522,22.269125 76.5206522,21.56 75.6538696,21.56 L56.07,21.56 L56.07,1.968 C56.07,1.096125 55.3657391,0.37925 54.4834783,0.37925 L33.3285652,0.37925 C32.457913,0.37925 31.7420435,1.1 31.7420435,1.968 L31.7420435,42.744625 L11.7363913,42.744625 C10.858,42.744625 10.1498696,43.4615 10.1498696,44.333375 L10.1498696,76.12775 C10.1498696,76.999625 10.8618696,77.7165 11.7363913,77.7165 L11.7363913,77.7165 Z M56.07,24.7375 L74.0634783,24.7375 L74.0634783,74.539 L56.07,74.539 L56.07,24.7375 L56.07,24.7375 Z M34.915087,44.33725 L34.915087,3.560625 L52.9008261,3.560625 L52.9008261,23.14875 L52.9008261,74.542875 L34.915087,74.542875 L34.915087,44.33725 L34.915087,44.33725 Z M13.322913,45.91825 L31.7420435,45.91825 L31.7420435,74.539 L13.322913,74.539 L13.322913,45.91825 L13.322913,45.91825 Z" id="Shape"></path>
            </g>
        </g>
    </g>
</svg>